<svg width="375" height="812" viewBox="0 0 375 812" fill="none" xmlns="http://www.w3.org/2000/svg">
<g clip-path="url(#clip0_245_981)">
<rect width="375" height="812" fill="white"/>
<path d="M-61.9016 537.466C-80.8599 536.504 -106.45 539.609 -112.248 538.801C-118.047 537.993 -115.683 539.212 -118.307 539.916C-120.831 540.594 -125.299 546.936 -125.832 548.495C-127.668 553.865 -130.265 559.274 -128.254 563.66L-120.824 579.865C-113.302 596.273 -113.173 615.428 -105.651 631.837C-90.409 665.081 -73.4143 697.144 -55.3361 728.999C-45.7552 745.882 -38.0064 763.904 -27.2292 780.17C-22.8304 786.809 -16.7878 792.545 -12.9895 799.52C-9.71025 805.542 -7.33265 811.873 -3.22282 817.503C0.400363 822.466 5.35542 826.776 7.88967 832.304C10.291 837.542 12.0727 841.998 17.5731 845.386C24.5265 849.669 29.2591 855.085 35.5854 859.683C39.2414 862.341 41.3914 866.385 47.2797 867.19C54.2124 868.138 57.0892 868.255 65.5066 866.052C70.7624 864.676 76.885 862.519 81.8856 861.581C86.5356 860.71 93.3841 857.236 98.0387 855.22C107.63 851.066 117.705 847.914 127.288 843.52C155.215 830.716 182.865 817.186 210.849 804.356L234.684 793.428C243.052 789.592 255.565 785.475 263.069 780.368C270.461 775.336 239.152 758.615 220.992 748.708C198.493 736.434 184.343 730.705 158.213 727.82C132.084 724.936 115.956 727.09 96.0952 725.15C85.9688 724.16 77.4392 723.749 66.8143 721.052C61.1151 719.605 26.859 709.25 23.0935 686.157C19.328 663.065 23.6599 643.352 23.6599 643.352C23.6599 643.352 27.2419 613.682 22.5713 596.936C15.3275 570.964 9.9164 552.565 -21.1276 542.515C-35.0932 537.994 -45.3149 538.309 -61.9016 537.466Z" fill="#DADEFC" fill-opacity="0.5"/>
<path d="M522.268 472.93C557.492 464.292 547.495 478.074 581.08 487.615C582.031 492.757 584.825 488.584 582.487 496.813C580.295 504.529 578.307 512.335 575.904 519.986C573.485 527.69 569.358 536.754 564.693 543.198C561.214 548.004 558.786 556.047 556.363 561.512C553.352 568.305 551.905 576.157 549.88 583.284C534.602 637.065 518.098 690.44 502.815 744.236C495.005 771.729 491.68 799.87 486.998 827.956C483.927 846.379 483.409 863.77 477.072 881.765C467.94 907.696 459.125 933.694 448.434 958.985C441.701 974.913 422.014 993.368 403.457 988.097C338.228 969.566 270.043 959.732 206.831 934.343C175.702 921.839 141.461 915.02 109.13 905.835L61.6616 892.349C47.7365 888.393 32.495 885.895 20.0716 878.353C7.04594 870.446 -7.09046 864.86 -8.36569 847.413C-8.53249 845.13 -11.5025 842.663 -11.0358 840.562C-10.329 837.381 -8.41794 833.385 -6.59432 830.694C-0.931654 822.338 5.46631 815.613 14.7172 807.569C25.2347 798.425 33.9285 793.805 44.3145 787.776C56.8741 780.486 68.2071 775.244 84.258 769.042C117.044 756.376 171.775 749.008 171.775 749.008C171.775 749.008 210.308 745.322 233.567 737.233C273.979 723.179 298.38 710.045 325.098 676.075C339.66 657.561 347.699 626.496 347.699 626.496L355.48 595.31C355.48 595.31 365.417 549.825 383.296 527.428C395.213 512.5 400.35 504.967 420.44 495.577C440.53 486.186 499.8 478.44 522.268 472.93Z" fill="#C9D5FF"/>
<path d="M622.743 376.041C654.174 359.434 647.941 374.94 682.125 376.041C684.248 380.713 685.914 376.073 685.644 384.468C685.39 392.339 685.352 400.248 684.883 408.109C684.41 416.023 682.638 425.638 679.732 432.886C677.565 438.293 677.165 446.532 676.159 452.314C674.907 459.501 675.394 467.325 675.16 474.596C673.393 529.462 670.366 584.232 668.599 639.113C667.695 667.161 671.209 694.758 673.42 722.628C674.87 740.908 678.503 757.597 676.747 776.247C674.218 803.12 672.004 829.983 667.841 856.618C665.22 873.392 650.885 895.655 631.997 895.047C565.604 892.909 498.465 899.759 432.363 890.608C399.81 886.101 365.649 887.749 332.74 886.689L284.425 885.133C270.252 884.677 255.173 885.922 241.576 881.692C227.321 877.258 212.56 875.299 207.21 858.982C206.51 856.847 203.102 855.203 203.047 853.091C202.965 849.893 203.833 845.632 204.928 842.634C208.329 833.327 212.815 825.399 219.7 815.537C227.528 804.324 234.695 797.856 243.137 789.642C253.345 779.71 262.873 772.021 276.659 762.296C304.816 742.432 355.089 722.396 355.089 722.396C355.089 722.396 390.839 709.719 411.027 696.482C446.104 673.482 466.182 655.167 483.52 616.453C492.969 595.352 493.242 563.848 493.242 563.848L493.242 532.289C493.242 532.289 491.899 486.597 503.581 461.009C511.367 443.954 514.463 435.556 531.331 421.833C548.199 408.109 602.695 386.633 622.743 376.041Z" fill="#3E4AD9" fill-opacity="0.5"/>
</g>
<defs>
<clipPath id="clip0_245_981">
<rect width="375" height="812" fill="white"/>
</clipPath>
</defs>
</svg>
