<svg width="250" height="250" viewBox="0 0 250 250" fill="none" xmlns="http://www.w3.org/2000/svg">
<circle cx="125" cy="125" r="125" fill="#ECEFFD" fill-opacity="0.6"/>
<path d="M162.021 125.325L160.176 124.607H131.32C131.282 124.844 131.267 125.085 131.277 125.325H127.332L127.379 125.401H162.212L162.021 125.325ZM162.021 125.325H127.332L127.379 125.401H162.212L162.021 125.325ZM162.021 125.325H127.332L127.379 125.401H162.212L162.021 125.325ZM162.212 125.401L162.021 125.325H127.332L127.379 125.401H162.212ZM92.6139 204.912C91.3552 204.91 90.1486 204.41 89.2585 203.521C88.3684 202.633 87.8675 201.428 87.8656 200.171V108.303C87.8667 107.046 88.3672 105.84 89.2573 104.951C90.1475 104.061 91.3546 103.561 92.6139 103.558H100.015V102.764H92.6139C91.1438 102.767 89.7348 103.352 88.6956 104.39C87.6564 105.428 87.072 106.835 87.0703 108.303V200.171C87.0715 201.233 87.3784 202.272 87.9545 203.165C88.5305 204.057 89.3514 204.766 90.3193 205.206H160.383C160.319 205.111 160.256 205.011 160.192 204.912H92.6139ZM208.594 126.338C208.078 125.791 207.455 125.355 206.763 125.057C206.072 124.759 205.327 124.606 204.574 124.607H127.821L123.526 117.785L123.422 117.618L119.78 111.833L115.699 105.353C115.199 104.562 114.507 103.909 113.686 103.456C112.866 103.004 111.944 102.766 111.007 102.764H92.6139C91.1438 102.767 89.7348 103.352 88.6956 104.39C87.6564 105.428 87.072 106.835 87.0703 108.303V200.171C87.0715 201.233 87.3784 202.272 87.9545 203.165C88.5305 204.057 89.3514 204.766 90.3193 205.206C91.0388 205.537 91.8218 205.707 92.6139 205.706H204.574C205.367 205.707 206.151 205.537 206.872 205.206C207.84 204.766 208.661 204.057 209.237 203.165C209.813 202.272 210.12 201.233 210.121 200.171V130.146C210.122 128.727 209.575 127.363 208.594 126.338ZM209.326 200.171C209.324 201.429 208.822 202.634 207.931 203.522C207.04 204.411 205.833 204.911 204.574 204.912H92.6139C91.3552 204.91 90.1485 204.41 89.2585 203.521C88.3684 202.633 87.8675 201.428 87.8656 200.171V108.303C87.8667 107.046 88.3672 105.84 89.2573 104.951C90.1475 104.061 91.3546 103.561 92.6139 103.558H111.007C111.811 103.556 112.602 103.759 113.305 104.147C114.009 104.536 114.602 105.097 115.027 105.778L118.837 111.833L122.48 117.618L123.164 118.706L127.332 125.325L127.379 125.401H204.574C205.834 125.402 207.042 125.902 207.933 126.792C208.824 127.681 209.325 128.887 209.326 130.146V200.171ZM162.021 125.325H127.332L127.379 125.401H162.212L162.021 125.325ZM162.021 125.325H127.332L127.379 125.401H162.212L162.021 125.325ZM162.021 125.325H127.332L127.379 125.401H162.212L162.021 125.325ZM162.021 125.325L160.176 124.607H127.821L123.526 117.785L123.164 118.706L127.332 125.325L127.379 125.401H162.212L162.021 125.325Z" fill="#393A42"/>
<path d="M70.8399 158.262L68.5619 163.017L49.1085 156.508L52.4701 149.49L70.8399 158.262Z" fill="#FFB8B8"/>
<path d="M65.363 166.205L69.9676 156.593L75.7506 159.355L68.5915 174.299L68.1493 174.088C66.7329 173.412 65.6435 172.201 65.121 170.723C64.5985 169.245 64.6855 167.62 65.363 166.205Z" fill="#2F2E41"/>
<path d="M75.4258 200.726L70.1497 200.548L69.9274 180.042L76.1126 180.406L75.4258 200.726Z" fill="#FFB8B8"/>
<path d="M65.9418 198.899L76.6073 199.259L76.391 205.655L59.8087 205.097L59.8253 204.607C59.8782 203.041 60.5524 201.559 61.6995 200.489C62.8466 199.418 64.3726 198.846 65.9418 198.899Z" fill="#2F2E41"/>
<path d="M83.9223 114.907C83.9223 114.907 67.7744 110.822 60.454 116.841L56.3632 128.664L40 151.881L63.6836 166.069L67.9897 155.321L57.6551 150.161L70.1428 139.413L67.9897 196.165L76.1713 197.454C76.1713 197.454 94.257 127.375 83.9223 114.907Z" fill="#2F2E41"/>
<path d="M51.1173 139.204C51.6429 138.953 52.107 138.59 52.4768 138.14C52.8466 137.69 53.1131 137.165 53.2576 136.601C53.4021 136.037 53.421 135.449 53.313 134.877C53.205 134.305 52.9728 133.764 52.6327 133.291L61.7459 94.0546H54.8561L46.8132 132.518C46.056 133.141 45.5541 134.02 45.4025 134.988C45.2509 135.956 45.4602 136.946 45.9907 137.77C46.5213 138.594 47.3362 139.195 48.281 139.46C49.2259 139.724 50.235 139.633 51.1173 139.204Z" fill="#FFB8B8"/>
<path d="M59.4236 118.59L59.6204 118.241C61.6951 114.558 61.3589 108.561 60.7116 104.179C60.1695 100.509 60.1858 94.0403 60.2949 89.2602C60.3219 87.6468 60.8982 86.0906 61.929 84.8477C62.9599 83.6049 64.3838 82.7495 65.9664 82.4224C70.8788 81.4017 76.9096 81.1855 80.0673 81.1473L80.0699 81.3622L80.0673 81.1473C80.9252 81.1439 81.7503 81.4763 82.3656 82.0733C82.9808 82.6704 83.3372 83.4844 83.3582 84.3407C83.4543 89.4882 83.4245 98.875 82.1451 103.911C80.2462 111.386 83.2155 116.465 83.2458 116.516L83.4249 116.815L59.4236 118.59Z" fill="#838FEC"/>
<path d="M64.9995 82.9267C64.9995 82.9267 55.5024 81.3715 54.6412 88.6804C53.78 95.9893 53.3494 95.9893 53.3494 95.9893C53.3494 95.9893 60.2391 94.6995 61.9616 96.4193C63.684 98.139 64.9995 82.9267 64.9995 82.9267Z" fill="#838FEC"/>
<path d="M72.3871 56.8403C69.9421 54.8907 69.2997 51.128 70.7183 48.3435C72.1368 45.5589 75.344 43.8813 78.4705 44.0066C81.5969 44.1318 84.543 45.924 86.3542 48.4714C88.8986 52.0499 89.4325 57.0235 92.8157 59.825C95.8715 62.3553 100.249 62.2829 104.214 62.0816C105.55 62.0137 106.93 61.935 108.129 61.3422C109.329 60.7493 110.308 59.4989 110.154 58.1717C111.15 59.746 110.572 61.9533 109.236 63.2522C107.899 64.5512 105.997 65.0954 104.144 65.3121C100.876 65.655 97.5752 65.1421 94.5661 63.824C91.557 62.5058 88.9438 60.4278 86.9836 57.7946C85.6041 55.8945 84.5395 53.6819 82.6465 52.2907C80.7535 50.8995 77.5973 50.8027 76.4352 52.8426C75.8604 53.8515 75.9168 55.1171 75.3883 56.1509C74.8597 57.1847 73.1433 57.7421 72.6344 56.6985" fill="#2F2E41"/>
<path d="M72.0135 77.5737C78.6025 77.5737 83.944 72.2406 83.944 65.6619C83.944 59.0832 78.6025 53.7501 72.0135 53.7501C65.4245 53.7501 60.083 59.0832 60.083 65.6619C60.083 72.2406 65.4245 77.5737 72.0135 77.5737Z" fill="#2F2E41"/>
<path d="M71.9415 78.5062C77.336 78.5062 81.709 74.1399 81.709 68.7539C81.709 63.3679 77.336 59.0017 71.9415 59.0017C66.5471 59.0017 62.174 63.3679 62.174 68.7539C62.174 74.1399 66.5471 78.5062 71.9415 78.5062Z" fill="#FFB8B8"/>
<path d="M63.0354 61.5915C64.3629 61.8814 63.9285 64.1048 64.9774 64.9672C65.9237 65.7451 67.2864 64.9451 68.4773 64.6555C69.9809 64.2898 71.5546 64.8255 72.9428 65.5083C74.3309 66.1912 75.6695 67.0387 77.1838 67.3568C78.6982 67.675 80.4935 67.3164 81.3425 66.0245C82.1542 64.7893 81.8554 63.1236 81.2203 61.7892C80.4308 60.1301 79.1916 58.7249 77.6432 57.7328C76.0949 56.7408 74.2992 56.2015 72.4596 56.176C70.62 56.1506 68.8101 56.64 67.2348 57.5888C65.6595 58.5377 64.3818 59.908 63.5465 61.5447" fill="#2F2E41"/>
<path d="M168.285 54.033C149.439 53.0122 168.603 91.6901 151.708 97.047" stroke="#393A42" stroke-dasharray="4 4"/>
<path d="M109.932 77.631C101.459 89.3672 134.361 93.0386 130.811 106.161" stroke="#393A42" stroke-dasharray="4 4"/>
<path d="M198.848 72.3992C217.627 94.2739 170.085 96.7074 177.039 113.012" stroke="#393A42" stroke-dasharray="4 4"/>
<path d="M106.53 100.582L91.3215 86.218L87.2112 91.9635L97.4871 100.992L84.0108 111.677C83.9134 111.671 83.8165 111.662 83.7173 111.662C82.888 111.662 82.0761 111.899 81.3786 112.347C80.6811 112.795 80.1276 113.434 79.7843 114.188C79.4411 114.942 79.3225 115.778 79.443 116.597C79.5634 117.417 79.9176 118.184 80.4633 118.807C81.009 119.431 81.7231 119.884 82.52 120.113C83.317 120.342 84.1631 120.337 84.9572 120.098C85.7513 119.859 86.4597 119.397 86.9977 118.767C87.5356 118.137 87.8804 117.365 87.9907 116.545L88.0332 116.587L106.53 100.582Z" fill="#FFB8B8"/>
<path d="M79.1853 81.8014C79.1853 81.8014 86.9363 80.5116 90.3812 83.9511C93.8261 87.3906 95.5485 88.2505 95.5485 88.2505C95.5485 88.2505 87.7975 92.5498 90.8118 96.4193C90.8118 96.4193 82.6302 92.5498 81.3384 93.8396C80.0465 95.1295 79.1853 81.8014 79.1853 81.8014Z" fill="#838FEC"/>
</svg>
