<svg width="87" height="87" viewBox="0 0 87 87" fill="none" xmlns="http://www.w3.org/2000/svg">
<path d="M43.5 79.75C63.5203 79.75 79.75 63.5203 79.75 43.5C79.75 23.4797 63.5203 7.25 43.5 7.25C23.4797 7.25 7.25 23.4797 7.25 43.5C7.25 63.5203 23.4797 79.75 43.5 79.75Z" stroke="#393A42" stroke-linecap="round" stroke-linejoin="round"/>
<path d="M32.9513 32.625C33.8036 30.2023 35.4858 28.1594 37.6999 26.8581C39.9141 25.5568 42.5173 25.0811 45.0486 25.5153C47.5799 25.9495 49.8758 27.2655 51.5297 29.2303C53.1837 31.195 54.7017 34.0745 54.5002 37.5001C54.0002 46.0001 40.0002 52.5001 42.0002 57.0001" stroke="#393A42" stroke-linecap="round" stroke-linejoin="round"/>
<circle cx="42.5" cy="61.5" r="1.5" fill="#393A42"/>
</svg>
