<svg width="186" height="38" viewBox="0 0 186 38" fill="none" xmlns="http://www.w3.org/2000/svg">
<defs>
<linearGradient id="paint0_linear_330_944" x1="9.15306" y1="3.97959" x2="30.6429" y2="23.4796" gradientUnits="userSpaceOnUse">
<stop stop-color="#3B47D7"/>
<stop offset="1" stop-color="#6C7BF4"/>
</linearGradient>
</defs>
<path d="M51.975 25.175C51.2083 25.175 50.475 25.0833 49.775 24.9C49.0917 24.7167 48.4833 24.4583 47.95 24.125C47.65 23.925 47.4333 23.7417 47.3 23.575C47.1833 23.3917 47.125 23.175 47.125 22.925C47.125 22.7083 47.1833 22.5333 47.3 22.4C47.4333 22.25 47.6 22.175 47.8 22.175C48 22.175 48.2917 22.3 48.675 22.55C49.175 22.85 49.6667 23.0917 50.15 23.275C50.65 23.4417 51.2667 23.525 52 23.525C52.9 23.525 53.6 23.3667 54.1 23.05C54.6 22.7333 54.85 22.275 54.85 21.675C54.85 21.3083 54.7583 21.0167 54.575 20.8C54.3917 20.5667 54.075 20.3667 53.625 20.2C53.175 20.0167 52.5167 19.8333 51.65 19.65C50.1833 19.3333 49.1333 18.9083 48.5 18.375C47.8667 17.8417 47.55 17.1167 47.55 16.2C47.55 15.4833 47.75 14.85 48.15 14.3C48.55 13.75 49.1 13.3167 49.8 13C50.5167 12.6833 51.325 12.525 52.225 12.525C52.875 12.525 53.5 12.6167 54.1 12.8C54.7167 12.9667 55.2583 13.2083 55.725 13.525C56.2917 13.925 56.575 14.3417 56.575 14.775C56.575 14.9917 56.5083 15.175 56.375 15.325C56.2417 15.475 56.0833 15.55 55.9 15.55C55.7 15.55 55.4 15.4083 55 15.125C54.5333 14.825 54.0917 14.5917 53.675 14.425C53.2583 14.2583 52.7417 14.175 52.125 14.175C51.3417 14.175 50.7083 14.35 50.225 14.7C49.7583 15.05 49.525 15.5167 49.525 16.1C49.525 16.4667 49.6083 16.7667 49.775 17C49.9583 17.2167 50.25 17.4167 50.65 17.6C51.0667 17.7667 51.6583 17.9333 52.425 18.1C53.5583 18.35 54.4333 18.625 55.05 18.925C55.6833 19.225 56.1333 19.5917 56.4 20.025C56.6667 20.4583 56.8 21.0083 56.8 21.675C56.8 22.725 56.3583 23.575 55.475 24.225C54.5917 24.8583 53.425 25.175 51.975 25.175ZM64.8617 12.525C67.9117 12.525 69.4367 14.125 69.4367 17.325V24.125C69.4367 24.425 69.3451 24.6667 69.1617 24.85C68.9951 25.0333 68.7617 25.125 68.4617 25.125C68.1617 25.125 67.9201 25.0333 67.7367 24.85C67.5534 24.6667 67.4617 24.425 67.4617 24.125V22.925C67.1451 23.6417 66.6617 24.2 66.0117 24.6C65.3617 24.9833 64.6117 25.175 63.7617 25.175C62.9784 25.175 62.2534 25.0167 61.5867 24.7C60.9367 24.3833 60.4201 23.9417 60.0367 23.375C59.6534 22.8083 59.4617 22.1833 59.4617 21.5C59.4617 20.5833 59.6951 19.875 60.1617 19.375C60.6284 18.8583 61.3951 18.4917 62.4617 18.275C63.5284 18.0417 65.0117 17.925 66.9117 17.925H67.4617V17.1C67.4617 16.1 67.2534 15.3667 66.8367 14.9C66.4367 14.4333 65.7784 14.2 64.8617 14.2C63.7284 14.2 62.5784 14.5083 61.4117 15.125C60.9617 15.4083 60.6451 15.55 60.4617 15.55C60.2617 15.55 60.0951 15.475 59.9617 15.325C59.8284 15.175 59.7617 14.9833 59.7617 14.75C59.7617 14.5167 59.8284 14.3167 59.9617 14.15C60.1117 13.9667 60.3451 13.7833 60.6617 13.6C61.2451 13.2667 61.9034 13.0083 62.6367 12.825C63.3867 12.625 64.1284 12.525 64.8617 12.525ZM64.0367 23.575C65.0367 23.575 65.8534 23.2417 66.4867 22.575C67.1367 21.8917 67.4617 21.0167 67.4617 19.95V19.225H67.0117C65.5451 19.225 64.4284 19.2917 63.6617 19.425C62.8951 19.5417 62.3451 19.75 62.0117 20.05C61.6951 20.3333 61.5367 20.7583 61.5367 21.325C61.5367 21.975 61.7701 22.5167 62.2367 22.95C62.7201 23.3667 63.3201 23.575 64.0367 23.575ZM81.9186 13.2C82.1019 12.8 82.3936 12.6 82.7936 12.6C83.0436 12.6 83.2686 12.6833 83.4686 12.85C83.6686 13.0167 83.7686 13.225 83.7686 13.475C83.7686 13.625 83.7352 13.7583 83.6686 13.875L78.7936 24.375C78.6936 24.5917 78.5436 24.7667 78.3436 24.9C78.1436 25.0167 77.9269 25.075 77.6936 25.075C77.4769 25.075 77.2686 25.0167 77.0686 24.9C76.8686 24.7667 76.7102 24.5917 76.5936 24.375L71.7436 13.875C71.6769 13.7583 71.6436 13.6333 71.6436 13.5C71.6436 13.25 71.7519 13.0333 71.9686 12.85C72.2019 12.6667 72.4519 12.575 72.7186 12.575C72.8852 12.575 73.0436 12.625 73.1936 12.725C73.3602 12.825 73.4852 12.9667 73.5686 13.15L77.7436 22.525L81.9186 13.2ZM95.2639 22.175C95.4472 22.175 95.6055 22.25 95.7389 22.4C95.8722 22.55 95.9389 22.7417 95.9389 22.975C95.9389 23.3917 95.6472 23.775 95.0639 24.125C94.4639 24.475 93.8305 24.7417 93.1639 24.925C92.4972 25.0917 91.8472 25.175 91.2139 25.175C89.3305 25.175 87.8389 24.6167 86.7389 23.5C85.6555 22.3833 85.1139 20.8417 85.1139 18.875C85.1139 17.625 85.3555 16.525 85.8389 15.575C86.3222 14.6083 86.9972 13.8583 87.8639 13.325C88.7472 12.7917 89.7472 12.525 90.8639 12.525C92.4472 12.525 93.7055 13.0417 94.6389 14.075C95.5722 15.1083 96.0389 16.5083 96.0389 18.275C96.0389 18.6083 95.9722 18.85 95.8389 19C95.7055 19.15 95.4889 19.225 95.1889 19.225H87.1389C87.2889 22.0917 88.6472 23.525 91.2139 23.525C91.8639 23.525 92.4222 23.4417 92.8889 23.275C93.3555 23.0917 93.8555 22.85 94.3889 22.55C94.8222 22.3 95.1139 22.175 95.2639 22.175ZM90.8889 14.1C89.8222 14.1 88.9639 14.4333 88.3139 15.1C87.6805 15.7667 87.3055 16.7083 87.1889 17.925H94.2639C94.2305 16.6917 93.9222 15.75 93.3389 15.1C92.7555 14.4333 91.9389 14.1 90.8889 14.1ZM114.547 7.25C115.097 7.25 115.539 7.43333 115.872 7.8C116.222 8.15 116.397 8.60833 116.397 9.175V23.375C116.397 23.925 116.239 24.3583 115.922 24.675C115.606 24.9917 115.189 25.15 114.672 25.15C114.172 25.15 113.764 24.9917 113.447 24.675C113.131 24.3583 112.972 23.925 112.972 23.375V14.55L109.422 21.225C109.189 21.6583 108.931 21.975 108.647 22.175C108.381 22.375 108.056 22.475 107.672 22.475C107.306 22.475 106.981 22.375 106.697 22.175C106.414 21.975 106.156 21.6583 105.922 21.225L102.372 14.675V23.375C102.372 23.9083 102.214 24.3417 101.897 24.675C101.581 24.9917 101.164 25.15 100.647 25.15C100.147 25.15 99.7391 24.9917 99.4225 24.675C99.1058 24.3583 98.9475 23.925 98.9475 23.375V9.175C98.9475 8.60833 99.1141 8.15 99.4475 7.8C99.7975 7.43333 100.247 7.25 100.797 7.25C101.597 7.25 102.206 7.675 102.622 8.525L107.697 18.15L112.747 8.525C113.197 7.675 113.797 7.25 114.547 7.25ZM129.492 21.35C129.826 21.35 130.092 21.4833 130.292 21.75C130.509 22.0167 130.617 22.3583 130.617 22.775C130.617 23.0583 130.534 23.325 130.367 23.575C130.201 23.8083 129.967 24.0083 129.667 24.175C129.101 24.475 128.442 24.725 127.692 24.925C126.942 25.1083 126.251 25.2 125.617 25.2C124.284 25.2 123.117 24.9417 122.117 24.425C121.134 23.9083 120.376 23.175 119.842 22.225C119.309 21.2583 119.042 20.125 119.042 18.825C119.042 17.575 119.301 16.4667 119.817 15.5C120.334 14.5333 121.051 13.7833 121.967 13.25C122.884 12.7 123.926 12.425 125.092 12.425C126.209 12.425 127.184 12.675 128.017 13.175C128.867 13.6583 129.526 14.3583 129.992 15.275C130.459 16.175 130.692 17.2333 130.692 18.45C130.692 18.8167 130.601 19.1 130.417 19.3C130.251 19.4833 130.009 19.575 129.692 19.575H122.692C122.809 20.5583 123.109 21.275 123.592 21.725C124.076 22.1583 124.767 22.375 125.667 22.375C126.151 22.375 126.584 22.3167 126.967 22.2C127.351 22.0833 127.776 21.925 128.242 21.725C128.476 21.625 128.701 21.5417 128.917 21.475C129.134 21.3917 129.326 21.35 129.492 21.35ZM125.192 15.025C124.476 15.025 123.901 15.2583 123.467 15.725C123.034 16.175 122.776 16.8333 122.692 17.7H127.517C127.467 16.8167 127.242 16.15 126.842 15.7C126.459 15.25 125.909 15.025 125.192 15.025Z" fill="#343541"/>
<rect width="39" height="37.8663" rx="12" fill="url(#paint0_linear_330_944)"/>
<path fill-rule="evenodd" clip-rule="evenodd" d="M22.924 8.27963C23.3188 8.84919 23.5754 9.48391 23.6647 10.1111C23.6937 10.3147 23.7144 11.5035 23.7107 12.7527C23.7043 14.9355 23.6998 15.0308 23.5961 15.1974C23.3836 15.5386 22.9995 15.6792 22.6237 15.5534C22.3863 15.4739 22.2523 15.3626 22.1253 15.1393C22.0571 15.0195 22.0433 14.6314 22.0376 12.663C22.0308 10.3787 22.0281 10.3212 21.9091 9.97651C21.733 9.4664 21.5808 9.23073 21.2094 8.89314C21.0143 8.71575 20.8153 8.56937 20.6631 8.49125C19.9633 8.13223 19.0558 8.13621 18.3519 8.50137C18.1432 8.60962 18.0296 8.70008 17.7468 8.98325C17.3608 9.36978 17.2697 9.51796 17.0996 10.0362C17.011 10.3064 17.0031 10.6594 17.0014 14.4335L17.0611 18.4859L17.1043 18.9388C17.2685 19.4003 17.4274 19.589 17.756 19.9176C18.179 20.3406 18.7015 20.5802 19.3311 20.6398C19.7275 20.6774 19.8332 20.706 20.0005 20.8214C20.292 21.0222 20.4168 21.4098 20.3011 21.7553C20.2241 21.9851 20.1117 22.1195 19.8899 22.2466C19.6114 22.4061 18.647 22.3031 17.9879 22.0433C16.5987 21.4955 15.4223 20.2109 15.365 18.7535C15.3585 18.3112 15.3182 10.2789 15.39 9.94299C15.6951 7.96134 17.2894 6.70661 19.2245 6.54867C19.9125 6.49251 20.8477 6.68403 21.4499 7.00446C22.0271 7.31161 22.5914 7.79973 22.924 8.27963ZM22.9258 18.1996C23.325 18.7867 23.5762 19.4098 23.6646 20.033C23.7383 20.5524 23.7043 27.8836 23.6009 28.3673C23.3685 29.455 22.8416 30.1562 21.9958 30.7659C21.5823 31.064 21.2606 31.2262 20.7851 31.3763C19.2829 31.8506 17.6417 31.4516 16.531 30.3422C15.9416 29.7534 15.4868 28.8426 15.3648 28.0066C15.3392 27.8312 15.3205 26.804 15.3231 25.724C15.328 23.7842 15.3294 23.7582 15.4459 23.58C15.5866 23.3647 15.7678 23.2456 16.03 23.1961C16.2457 23.1554 16.5859 23.262 16.7411 23.4189C16.976 23.6563 16.9907 23.7961 16.9964 25.8422C17.0017 27.7288 17.0055 27.7984 17.1235 28.1398C17.2998 28.65 17.452 28.8856 17.8233 29.2231C18.3353 29.6886 18.8507 29.8923 19.5163 29.8922C20.182 29.8923 20.6974 29.6886 21.2094 29.2231C21.58 28.8862 21.721 28.7898 21.8989 28.279L21.9524 27.8247C21.9524 27.8247 22.0322 25.4913 22.0322 24.019C22.0322 22.5468 21.9763 20.2276 21.9763 20.2276C21.9763 20.2276 21.9542 20.0583 21.9097 19.8977C21.8653 19.7372 21.5956 19.1865 21.2987 18.8895C20.8548 18.4457 20.3413 18.2077 19.6966 18.147C19.2638 18.1063 19.1067 18.0514 18.938 17.8819C18.6911 17.6339 18.6229 17.3117 18.7465 16.9784C18.8166 16.7897 18.937 16.6568 19.1346 16.5503C19.5762 16.3123 20.8384 16.561 21.665 17.0489C22.101 17.3062 22.6739 17.8291 22.9258 18.1996Z" fill="#FDFEFF"/>
</svg>
