<svg width="140" height="103" viewBox="0 0 140 103" fill="none" xmlns="http://www.w3.org/2000/svg">
<defs>
<linearGradient id="paint0_linear_54_888" x1="51.7245" y1="6.83124" x2="88.616" y2="40.3338" gradientUnits="userSpaceOnUse">
<stop stop-color="#3B47D7"/>
<stop offset="1" stop-color="#6C7BF4"/>
</linearGradient>
</defs>
<path d="M18.4993 101.245C17.4259 101.245 16.3993 101.117 15.4193 100.86C14.4626 100.603 13.6109 100.242 12.8643 99.775C12.4443 99.495 12.1409 99.2383 11.9543 99.005C11.7909 98.7483 11.7093 98.445 11.7093 98.095C11.7093 97.7917 11.7909 97.5467 11.9543 97.36C12.1409 97.15 12.3743 97.045 12.6543 97.045C12.9343 97.045 13.3426 97.22 13.8793 97.57C14.5793 97.99 15.2676 98.3283 15.9443 98.585C16.6443 98.8183 17.5076 98.935 18.5343 98.935C19.7943 98.935 20.7743 98.7133 21.4743 98.27C22.1743 97.8267 22.5243 97.185 22.5243 96.345C22.5243 95.8317 22.3959 95.4233 22.1393 95.12C21.8826 94.7933 21.4393 94.5133 20.8093 94.28C20.1793 94.0233 19.2576 93.7667 18.0443 93.51C15.9909 93.0667 14.5209 92.4717 13.6343 91.725C12.7476 90.9783 12.3043 89.9633 12.3043 88.68C12.3043 87.6767 12.5843 86.79 13.1443 86.02C13.7043 85.25 14.4743 84.6433 15.4543 84.2C16.4576 83.7567 17.5893 83.535 18.8493 83.535C19.7593 83.535 20.6343 83.6633 21.4743 83.92C22.3376 84.1533 23.0959 84.4917 23.7493 84.935C24.5426 85.495 24.9393 86.0783 24.9393 86.685C24.9393 86.9883 24.8459 87.245 24.6593 87.455C24.4726 87.665 24.2509 87.77 23.9943 87.77C23.7143 87.77 23.2943 87.5717 22.7343 87.175C22.0809 86.755 21.4626 86.4283 20.8793 86.195C20.2959 85.9617 19.5726 85.845 18.7093 85.845C17.6126 85.845 16.7259 86.09 16.0493 86.58C15.3959 87.07 15.0693 87.7233 15.0693 88.54C15.0693 89.0533 15.1859 89.4733 15.4193 89.8C15.6759 90.1033 16.0843 90.3833 16.6443 90.64C17.2276 90.8733 18.0559 91.1067 19.1293 91.34C20.7159 91.69 21.9409 92.075 22.8043 92.495C23.6909 92.915 24.3209 93.4283 24.6943 94.035C25.0676 94.6417 25.2543 95.4117 25.2543 96.345C25.2543 97.815 24.6359 99.005 23.3993 99.915C22.1626 100.802 20.5293 101.245 18.4993 101.245ZM36.5407 83.535C40.8107 83.535 42.9457 85.775 42.9457 90.255V99.775C42.9457 100.195 42.8174 100.533 42.5607 100.79C42.3274 101.047 42.0007 101.175 41.5807 101.175C41.1607 101.175 40.8224 101.047 40.5657 100.79C40.309 100.533 40.1807 100.195 40.1807 99.775V98.095C39.7374 99.0983 39.0607 99.88 38.1507 100.44C37.2407 100.977 36.1907 101.245 35.0007 101.245C33.904 101.245 32.889 101.023 31.9557 100.58C31.0457 100.137 30.3224 99.5183 29.7857 98.725C29.249 97.9317 28.9807 97.0567 28.9807 96.1C28.9807 94.8167 29.3074 93.825 29.9607 93.125C30.614 92.4017 31.6874 91.8883 33.1807 91.585C34.674 91.2583 36.7507 91.095 39.4107 91.095H40.1807V89.94C40.1807 88.54 39.889 87.5133 39.3057 86.86C38.7457 86.2067 37.824 85.88 36.5407 85.88C34.954 85.88 33.344 86.3117 31.7107 87.175C31.0807 87.5717 30.6374 87.77 30.3807 87.77C30.1007 87.77 29.8674 87.665 29.6807 87.455C29.494 87.245 29.4007 86.9767 29.4007 86.65C29.4007 86.3233 29.494 86.0433 29.6807 85.81C29.8907 85.5533 30.2174 85.2967 30.6607 85.04C31.4774 84.5733 32.399 84.2117 33.4257 83.955C34.4757 83.675 35.514 83.535 36.5407 83.535ZM35.3857 99.005C36.7857 99.005 37.929 98.5383 38.8157 97.605C39.7257 96.6483 40.1807 95.4233 40.1807 93.93V92.915H39.5507C37.4974 92.915 35.934 93.0083 34.8607 93.195C33.7874 93.3583 33.0174 93.65 32.5507 94.07C32.1074 94.4667 31.8857 95.0617 31.8857 95.855C31.8857 96.765 32.2124 97.5233 32.8657 98.13C33.5424 98.7133 34.3824 99.005 35.3857 99.005ZM60.4203 84.48C60.6769 83.92 61.0853 83.64 61.6453 83.64C61.9953 83.64 62.3103 83.7567 62.5903 83.99C62.8703 84.2233 63.0103 84.515 63.0103 84.865C63.0103 85.075 62.9636 85.2617 62.8703 85.425L56.0453 100.125C55.9053 100.428 55.6953 100.673 55.4153 100.86C55.1353 101.023 54.8319 101.105 54.5053 101.105C54.2019 101.105 53.9103 101.023 53.6303 100.86C53.3503 100.673 53.1286 100.428 52.9653 100.125L46.1753 85.425C46.0819 85.2617 46.0353 85.0867 46.0353 84.9C46.0353 84.55 46.1869 84.2467 46.4903 83.99C46.8169 83.7333 47.1669 83.605 47.5403 83.605C47.7736 83.605 47.9953 83.675 48.2053 83.815C48.4386 83.955 48.6136 84.1533 48.7303 84.41L54.5753 97.535L60.4203 84.48ZM79.1037 97.045C79.3604 97.045 79.582 97.15 79.7687 97.36C79.9554 97.57 80.0487 97.8383 80.0487 98.165C80.0487 98.7483 79.6404 99.285 78.8237 99.775C77.9837 100.265 77.097 100.638 76.1637 100.895C75.2304 101.128 74.3204 101.245 73.4337 101.245C70.797 101.245 68.7087 100.463 67.1687 98.9C65.652 97.3367 64.8937 95.1783 64.8937 92.425C64.8937 90.675 65.232 89.135 65.9087 87.805C66.5854 86.4517 67.5304 85.4017 68.7437 84.655C69.9804 83.9083 71.3804 83.535 72.9437 83.535C75.1604 83.535 76.922 84.2583 78.2287 85.705C79.5354 87.1517 80.1887 89.1117 80.1887 91.585C80.1887 92.0517 80.0954 92.39 79.9087 92.6C79.722 92.81 79.4187 92.915 78.9987 92.915H67.7287C67.9387 96.9283 69.8404 98.935 73.4337 98.935C74.3437 98.935 75.1254 98.8183 75.7787 98.585C76.432 98.3283 77.132 97.99 77.8787 97.57C78.4854 97.22 78.8937 97.045 79.1037 97.045ZM72.9787 85.74C71.4854 85.74 70.2837 86.2067 69.3737 87.14C68.487 88.0733 67.962 89.3917 67.7987 91.095H77.7037C77.657 89.3683 77.2254 88.05 76.4087 87.14C75.592 86.2067 74.4487 85.74 72.9787 85.74ZM106.101 76.15C106.871 76.15 107.489 76.4067 107.956 76.92C108.446 77.41 108.691 78.0517 108.691 78.845V98.725C108.691 99.495 108.469 100.102 108.026 100.545C107.582 100.988 106.999 101.21 106.276 101.21C105.576 101.21 105.004 100.988 104.561 100.545C104.117 100.102 103.896 99.495 103.896 98.725V86.37L98.9257 95.715C98.5991 96.3217 98.2374 96.765 97.8407 97.045C97.4674 97.325 97.0124 97.465 96.4757 97.465C95.9624 97.465 95.5074 97.325 95.1107 97.045C94.7141 96.765 94.3524 96.3217 94.0257 95.715L89.0557 86.545V98.725C89.0557 99.4717 88.8341 100.078 88.3907 100.545C87.9474 100.988 87.3641 101.21 86.6407 101.21C85.9407 101.21 85.3691 100.988 84.9257 100.545C84.4824 100.102 84.2607 99.495 84.2607 98.725V78.845C84.2607 78.0517 84.4941 77.41 84.9607 76.92C85.4507 76.4067 86.0807 76.15 86.8507 76.15C87.9707 76.15 88.8224 76.745 89.4057 77.935L96.5107 91.41L103.581 77.935C104.211 76.745 105.051 76.15 106.101 76.15ZM127.024 95.89C127.49 95.89 127.864 96.0767 128.144 96.45C128.447 96.8233 128.599 97.3017 128.599 97.885C128.599 98.2817 128.482 98.655 128.249 99.005C128.015 99.3317 127.689 99.6117 127.269 99.845C126.475 100.265 125.554 100.615 124.504 100.895C123.454 101.152 122.485 101.28 121.599 101.28C119.732 101.28 118.099 100.918 116.699 100.195C115.322 99.4717 114.26 98.445 113.514 97.115C112.767 95.7617 112.394 94.175 112.394 92.355C112.394 90.605 112.755 89.0533 113.479 87.7C114.202 86.3467 115.205 85.2967 116.489 84.55C117.772 83.78 119.23 83.395 120.864 83.395C122.427 83.395 123.792 83.745 124.959 84.445C126.149 85.1217 127.07 86.1017 127.724 87.385C128.377 88.645 128.704 90.1267 128.704 91.83C128.704 92.3433 128.575 92.74 128.319 93.02C128.085 93.2767 127.747 93.405 127.304 93.405H117.504C117.667 94.7817 118.087 95.785 118.764 96.415C119.44 97.0217 120.409 97.325 121.669 97.325C122.345 97.325 122.952 97.2433 123.489 97.08C124.025 96.9167 124.62 96.695 125.274 96.415C125.6 96.275 125.915 96.1583 126.219 96.065C126.522 95.9483 126.79 95.89 127.024 95.89ZM121.004 87.035C120 87.035 119.195 87.3617 118.589 88.015C117.982 88.645 117.62 89.5667 117.504 90.78H124.259C124.189 89.5433 123.874 88.61 123.314 87.98C122.777 87.35 122.007 87.035 121.004 87.035Z" fill="#343541"/>
<rect x="36" width="67" height="65" rx="12" fill="url(#paint0_linear_54_888)"/>
<path fill-rule="evenodd" clip-rule="evenodd" d="M76.5396 13.2655C77.2427 14.2799 77.6998 15.4103 77.8589 16.5273C77.9106 16.89 77.9474 19.0072 77.9408 21.2321C77.9293 25.1197 77.9213 25.2894 77.7366 25.5861C77.3581 26.1938 76.6741 26.4442 76.0048 26.2201C75.5821 26.0786 75.3434 25.8802 75.1171 25.4826C74.9957 25.2692 74.9711 24.5779 74.9609 21.0722C74.9489 17.0039 74.944 16.9015 74.7321 16.2876C74.4184 15.3791 74.1473 14.9594 73.486 14.3581C73.1385 14.0422 72.7841 13.7815 72.5129 13.6424C71.2666 13.0029 69.6503 13.01 68.3966 13.6604C68.0249 13.8532 67.8227 14.0143 67.319 14.5186C66.6315 15.207 66.4692 15.471 66.1664 16.3939C66.0085 16.8751 65.9944 17.5039 65.9914 24.2256L66.0978 31.443L66.1747 32.2496C66.4672 33.0716 66.7501 33.4075 67.3354 33.9928C68.0887 34.7461 69.0194 35.1729 70.1406 35.2791C70.8467 35.346 71.0348 35.397 71.3329 35.6024C71.852 35.9601 72.0742 36.6505 71.8683 37.2658C71.7312 37.6751 71.5309 37.9144 71.1359 38.1407C70.6399 38.4249 68.9222 38.2413 67.7485 37.7786C65.2741 36.8032 63.179 34.5152 63.077 31.9195C63.0654 31.1319 62.9936 16.8262 63.1215 16.2279C63.665 12.6986 66.5043 10.4639 69.9508 10.1826C71.1762 10.0826 72.8417 10.4237 73.9142 10.9944C74.9422 11.5414 75.9472 12.4108 76.5396 13.2655ZM76.5429 30.933C77.2539 31.9786 77.7011 33.0884 77.8587 34.1984C77.99 35.1235 77.9293 48.1803 77.7452 49.0418C77.3313 50.979 76.3929 52.2278 74.8865 53.3137C74.15 53.8447 73.5772 54.1335 72.7303 54.4009C70.0549 55.2456 67.1317 54.535 65.1537 52.559C64.1039 51.5104 63.294 49.8884 63.0767 48.3995C63.031 48.087 62.9976 46.2575 63.0024 44.3341C63.011 40.8793 63.0136 40.8329 63.2211 40.5156C63.4717 40.1322 63.7944 39.9201 64.2613 39.8319C64.6454 39.7593 65.2514 39.9492 65.5279 40.2287C65.9461 40.6515 65.9724 40.9005 65.9825 44.5446C65.9919 47.9047 65.9988 48.0285 66.2089 48.6367C66.5229 49.5453 66.794 49.9649 67.4552 50.566C68.367 51.395 69.285 51.7578 70.4706 51.7578C71.6562 51.7578 72.5741 51.395 73.486 50.566C74.146 49.966 74.3972 49.7942 74.7138 48.8846L74.8093 48.0754C74.8093 48.0754 74.9513 43.9197 74.9513 41.2975C74.9513 38.6754 74.8517 34.5449 74.8517 34.5449C74.8517 34.5449 74.8123 34.2433 74.7332 33.9574C74.654 33.6715 74.1738 32.6907 73.6449 32.1618C72.8544 31.3713 71.9398 30.9474 70.7917 30.8394C70.0208 30.7669 69.741 30.6691 69.4405 30.3672C69.0009 29.9256 68.8793 29.3518 69.0995 28.7581C69.2242 28.422 69.4388 28.1853 69.7907 27.9957C70.5771 27.5718 72.8251 28.0147 74.2973 28.8836C75.0738 29.3418 76.0942 30.2731 76.5429 30.933Z" fill="#FDFEFF"/>
</svg>
