<svg width="250" height="250" viewBox="0 0 250 250" fill="none" xmlns="http://www.w3.org/2000/svg">
<circle cx="125" cy="125" r="125" fill="#ECEFFD" fill-opacity="0.6"/>
<path d="M152.462 86.7044V77.7534C152.462 74.5722 153.73 71.5214 155.988 69.272C158.246 67.0226 161.308 65.7589 164.501 65.7589C167.694 65.7589 170.757 67.0226 173.015 69.272C175.272 71.5214 176.541 74.5722 176.541 77.7534V86.7044C176.54 87.1316 176.37 87.5411 176.067 87.8431C175.763 88.1452 175.352 88.3151 174.924 88.3156H154.079C153.65 88.3151 153.239 88.1452 152.936 87.8431C152.633 87.5411 152.462 87.1316 152.462 86.7044Z" fill="#2F2E41"/>
<path d="M182.304 203.192L178.057 204.363L171.503 188.602L177.771 186.874L182.304 203.192Z" fill="#FFB8B8"/>
<path d="M174.688 203.99L182.878 201.732L184.305 206.869L170.959 210.549C170.772 209.874 170.719 209.17 170.805 208.475C170.891 207.78 171.114 207.109 171.46 206.5C171.807 205.891 172.27 205.356 172.824 204.925C173.378 204.495 174.011 204.177 174.688 203.99Z" fill="#2F2E41"/>
<path d="M138.032 206.446H133.626L131.529 189.515H138.032L138.032 206.446Z" fill="#FFB8B8"/>
<path d="M130.479 205.192H138.976V210.522H125.128C125.128 209.822 125.267 209.129 125.536 208.482C125.804 207.835 126.199 207.248 126.695 206.753C127.192 206.258 127.782 205.865 128.431 205.597C129.08 205.33 129.776 205.192 130.479 205.192Z" fill="#2F2E41"/>
<path d="M132.719 111.824C133.033 112.247 133.437 112.596 133.902 112.847C134.366 113.097 134.88 113.243 135.408 113.275C135.935 113.306 136.463 113.222 136.954 113.028C137.445 112.834 137.888 112.535 138.25 112.152L149.963 117.401L148.898 110.837L137.939 106.859C137.253 106.295 136.383 106.001 135.494 106.033C134.605 106.064 133.759 106.42 133.115 107.032C132.472 107.644 132.076 108.47 132.003 109.353C131.93 110.236 132.185 111.115 132.719 111.824H132.719Z" fill="#FFB8B8"/>
<path d="M157.055 151.294C153.375 151.294 149.565 150.748 146.363 149.123C144.664 148.278 143.157 147.093 141.938 145.641C140.72 144.189 139.815 142.502 139.28 140.686C137.612 135.423 139.715 130.253 141.75 125.253C143.01 122.154 144.201 119.228 144.51 116.343L144.618 115.319C145.099 110.719 145.515 106.746 147.815 105.256C149.008 104.484 150.611 104.44 152.718 105.121L172.5 111.524L171.773 148.935L171.653 148.975C171.549 149.01 164.575 151.294 157.055 151.294Z" fill="#2F2E41"/>
<path d="M152.372 93.4743C152.372 93.4743 162.075 90.61 169.623 91.6841C169.623 91.6841 165.31 115.315 166.747 123.192C168.185 131.069 141.77 126.235 147.161 118.716L148.958 109.765C148.958 109.765 145.364 106.185 148.598 101.888L152.372 93.4743Z" fill="#838FEC"/>
<path d="M147.599 150.584L135.64 148.351L139.815 116.339C140.096 115.445 146.564 95.1635 149.501 94.0661C151.634 93.3178 153.815 92.7141 156.03 92.2591L156.456 92.1743L154.058 95.7579L144.511 118.549L147.599 150.584Z" fill="#2F2E41"/>
<path d="M141.368 202.523L125.916 199.958L134.587 164.682L147.49 116.44L147.618 117.297C147.628 117.361 148.833 123.663 166.72 120.867L166.877 120.842L166.92 120.995L188.539 197.092L170.932 200.016L154.873 144.495L141.368 202.523Z" fill="#2F2E41"/>
<path d="M162.785 156.575L162.794 156.304C162.805 156.004 163.868 126.095 163.513 114.067C163.157 101.998 167.079 91.5458 167.119 91.4416L167.15 91.3577L167.237 91.3329C172.312 89.8887 176.714 94.1992 176.758 94.2429L176.82 94.3044L175.374 106.183L181.562 149.378L162.785 156.575Z" fill="#2F2E41"/>
<path d="M162.027 88.1072C166.902 88.1072 170.854 84.1701 170.854 79.3133C170.854 74.4566 166.902 70.5195 162.027 70.5195C157.152 70.5195 153.2 74.4566 153.2 79.3133C153.2 84.1701 157.152 88.1072 162.027 88.1072Z" fill="#FFB8B8"/>
<path d="M149.613 78.4694C149.616 75.9539 150.62 73.5422 152.406 71.7635C154.191 69.9847 156.612 68.9842 159.137 68.9813H160.934C163.459 68.9842 165.88 69.9847 167.665 71.7635C169.451 73.5422 170.455 75.9539 170.458 78.4694V78.6485H166.66L165.365 75.0352L165.106 78.6485H163.143L162.49 76.8254L162.359 78.6485H149.613V78.4694Z" fill="#2F2E41"/>
<path d="M161.159 89.3221C160.98 89.0816 160.874 88.7958 160.851 88.4977C160.829 88.1995 160.892 87.9011 161.032 87.6368C162.936 84.0284 165.602 77.361 162.063 73.2491L161.809 72.9536H172.083V88.3207L162.75 89.9613C162.655 89.9779 162.56 89.9864 162.464 89.9865C162.209 89.9865 161.958 89.9262 161.731 89.8108C161.504 89.6953 161.308 89.5278 161.159 89.3221Z" fill="#2F2E41"/>
<path d="M118.749 47.3419C113.458 42.918 106.982 40.1132 100.111 39.269C93.2402 38.4248 86.2696 39.5775 80.0478 42.5869C73.8259 45.5962 68.621 50.3325 65.0664 56.2193C61.5117 62.1062 59.7607 68.8897 60.0263 75.7446C60.2919 82.5995 62.5627 89.2301 66.5624 94.8296C70.5621 100.429 76.1181 104.756 82.5546 107.284C88.991 109.812 96.0302 110.432 102.816 109.068C109.601 107.704 115.84 104.416 120.774 99.603L164.584 136.229C165.25 136.788 166.114 137.061 166.983 136.989C167.853 136.916 168.659 136.505 169.222 135.844C169.786 135.184 170.061 134.329 169.989 133.467C169.916 132.605 169.5 131.807 168.834 131.249L168.829 131.245L125.019 94.6186C130.108 87.3815 132.286 78.5223 131.127 69.7769C129.967 61.0316 125.553 53.0306 118.749 47.3419ZM115.925 91.0917C112.512 95.0993 107.976 98.0141 102.891 99.4676C97.8061 100.921 92.4003 100.848 87.3573 99.2574C82.3143 97.6668 77.8606 94.6304 74.5594 90.5319C71.2581 86.4335 69.2576 81.4572 68.8108 76.2323C68.3641 71.0074 69.4911 65.7686 72.0494 61.1783C74.6077 56.588 78.4824 52.8525 83.1834 50.444C87.8845 48.0356 93.2008 47.0624 98.4601 47.6476C103.719 48.2328 108.685 50.35 112.73 53.7316H112.73C115.416 55.9769 117.629 58.7242 119.243 61.8169C120.857 64.9096 121.84 68.2869 122.137 71.7561C122.434 75.2253 122.038 78.7185 120.972 82.0361C119.906 85.3537 118.191 88.4308 115.925 91.0917Z" fill="#3F3D56"/>
<path d="M164.861 127.197C165.375 127.322 165.909 127.334 166.427 127.231C166.945 127.128 167.434 126.913 167.86 126.601C168.286 126.289 168.638 125.888 168.891 125.426C169.144 124.965 169.293 124.453 169.326 123.928L181.701 120.506L176.671 116.136L165.691 120.056C164.801 120.058 163.944 120.386 163.28 120.976C162.617 121.567 162.194 122.379 162.092 123.26C161.99 124.14 162.215 125.027 162.726 125.753C163.236 126.479 163.996 126.993 164.861 127.197Z" fill="#FFB8B8"/>
<path d="M170.005 125.386L169.252 118.259L179.589 112.577L172.849 104.45L173.949 95.3196L176.688 94.1504L176.773 94.2595C178.064 95.9137 189.389 110.472 189.389 112.272C189.389 114.12 187.223 119.548 184.259 121.025C181.399 122.449 170.662 125.217 170.207 125.334L170.005 125.386Z" fill="#2F2E41"/>
<ellipse cx="85.6842" cy="67.6704" rx="3.68425" ry="3.67042" fill="#838FEC"/>
<ellipse cx="106.316" cy="67.6704" rx="3.68425" ry="3.67042" fill="#838FEC"/>
<path d="M85.9297 83.8114C95.8803 74.3907 101.652 80.9974 105.831 83.8114" stroke="#838FEC" stroke-width="3" stroke-linecap="round"/>
</svg>
