<svg width="375" height="812" viewBox="0 0 375 812" fill="none" xmlns="http://www.w3.org/2000/svg">
<g clip-path="url(#clip0_245_981)">
<rect width="375" height="812" fill="white"/>
<path d="M-43.1206 490.764C-60.8878 486.928 -85.4852 485.979 -90.8477 484.313C-96.2103 482.646 -94.1487 484.18 -96.7246 484.454C-99.2025 484.716 -104.308 490.122 -105.028 491.538C-107.512 496.414 -110.72 501.211 -109.434 505.733L-104.682 522.439C-99.871 539.356 -102.426 557.774 -97.6145 574.691C-87.8666 608.965 -76.2982 642.373 -63.6777 675.748C-56.9892 693.436 -52.19 711.938 -44.2857 729.217C-41.0595 736.269 -36.155 742.707 -33.5429 749.991C-31.2877 756.279 -29.9269 762.725 -26.8327 768.764C-24.1048 774.088 -20.028 778.989 -18.4072 784.688C-16.8715 790.088 -15.8117 794.642 -11.0911 798.742C-5.12358 803.924 -1.41122 809.852 3.92005 815.241C7.00104 818.356 8.46621 822.57 13.9139 824.248C20.3278 826.223 23.0278 826.778 31.2839 825.954C36.4391 825.44 42.5217 824.309 47.3745 824.176C51.8871 824.053 58.8392 821.769 63.516 820.547C73.1531 818.03 83.1067 816.55 92.7695 813.801C120.929 805.793 148.927 797.043 177.144 789.018L201.177 782.183C209.615 779.783 222.006 777.75 229.805 773.997C237.488 770.3 210.26 749.429 194.495 737.123C174.965 721.878 162.404 714.202 138.134 707.417C113.864 700.633 98.3337 700.225 79.8512 695.311C70.4275 692.805 62.4307 691.1 52.7748 686.877C47.5953 684.612 16.6952 669.403 16.3655 646.643C16.0359 623.884 22.8802 605.614 22.8802 605.614C22.8802 605.614 30.4072 577.665 28.3364 560.863C25.1245 534.803 22.5853 516.298 -5.32452 501.877C-17.8801 495.389 -27.576 494.121 -43.1206 490.764Z" fill="#DADEFC" fill-opacity="0.5"/>
<path d="M516.459 448.249C551.683 439.611 541.686 453.392 575.271 462.933C576.222 468.076 579.016 463.903 576.678 472.132C574.486 479.847 572.498 487.653 570.095 495.305C567.676 503.008 563.549 512.072 558.885 518.516C555.405 523.323 552.977 531.366 550.555 536.831C547.543 543.624 546.096 551.476 544.072 558.603C528.793 612.384 512.289 665.759 497.007 719.555C489.196 747.048 485.871 775.188 481.189 803.275C478.118 821.698 477.6 839.089 471.263 857.084C462.132 883.015 453.316 909.013 442.625 934.304C435.892 950.231 416.205 968.687 397.649 963.415C332.419 944.884 264.234 935.051 201.022 909.661C169.893 897.158 135.652 890.338 103.321 881.153L55.8528 867.668C41.9276 863.712 26.6862 861.214 14.2628 853.672C1.2371 845.764 -12.8993 840.179 -14.1745 822.731C-14.3413 820.449 -17.3113 817.982 -16.8447 815.881C-16.1378 812.7 -14.2268 808.704 -12.4032 806.013C-6.74049 797.656 -0.342533 790.931 8.90833 782.888C19.4259 773.744 28.1197 769.124 38.5057 763.095C51.0653 755.804 62.3983 750.562 78.4492 744.361C111.235 731.694 165.966 724.327 165.966 724.327C165.966 724.327 204.499 720.641 227.758 712.552C268.17 698.498 292.572 685.364 319.289 651.394C333.851 632.88 341.89 601.815 341.89 601.815L349.672 570.629C349.672 570.629 359.608 525.144 377.487 502.747C389.404 487.818 394.541 480.286 414.631 470.895C434.721 461.504 493.991 453.759 516.459 448.249Z" fill="#C9D5FF"/>
<path d="M616.935 351.359C648.366 334.752 642.132 350.258 676.316 351.359C678.439 356.032 680.105 351.392 679.835 359.787C679.582 367.658 679.543 375.567 679.074 383.427C678.601 391.341 676.829 400.957 673.924 408.205C671.757 413.611 671.357 421.851 670.35 427.633C669.098 434.82 669.586 442.644 669.351 449.915C667.584 504.781 664.557 559.551 662.79 614.432C661.886 642.48 665.4 670.077 667.611 697.946C669.061 716.226 672.694 732.916 670.938 751.565C668.409 778.439 666.196 805.302 662.032 831.937C659.411 848.711 645.076 870.974 626.188 870.366C559.796 868.228 492.656 875.078 426.554 865.927C394.001 861.42 359.84 863.067 326.931 862.008L278.617 860.452C264.443 859.995 249.364 861.24 235.767 857.011C221.512 852.576 206.751 850.618 201.401 834.3C200.701 832.166 197.293 830.522 197.238 828.41C197.156 825.211 198.024 820.95 199.119 817.953C202.52 808.646 207.006 800.718 213.891 790.856C221.719 779.643 228.886 773.175 237.328 764.961C247.536 755.029 257.065 747.34 270.85 737.615C299.008 717.75 349.28 697.715 349.28 697.715C349.28 697.715 385.03 685.038 405.218 671.801C440.296 648.801 460.373 630.486 477.711 591.771C487.16 570.671 487.434 539.167 487.434 539.167L487.434 507.608C487.434 507.608 486.09 461.915 497.772 436.328C505.558 419.272 508.654 410.875 525.522 397.151C542.39 383.427 596.887 361.952 616.935 351.359Z" fill="#3E4AD9" fill-opacity="0.5"/>
</g>
<defs>
<clipPath id="clip0_245_981">
<rect width="375" height="812" fill="white"/>
</clipPath>
</defs>
</svg>
